<?xml version="1.0" encoding="utf-8"?>
<!-- Svg Vector Icons : http://www.onlinewebfonts.com/icon -->
<!DOCTYPE svg PUBLIC "-//W3C//DTD SVG 1.1//EN" "http://www.w3.org/Graphics/SVG/1.1/DTD/svg11.dtd">
<svg version="1.1" xmlns="http://www.w3.org/2000/svg" xmlns:xlink="http://www.w3.org/1999/xlink" x="0px" y="0px" viewBox="0 0 1000 1000" enable-background="new 0 0 1000 1000" xml:space="preserve">
<metadata> Svg Vector Icons : http://www.onlinewebfonts.com/icon </metadata>
<g><g><path d="M937.9,10H62.1C33.3,10,10,33.3,10,62.1v875.7c0,28.8,23.3,52.1,52.1,52.1h875.7c28.8,0,52.1-23.3,52.1-52.1V62.1C990,33.3,966.7,10,937.9,10z M849.9,725.9c-6.5,53.9-13.3,107.8-19.3,161.7c-2.2,20.1-1.5,19.9-22,19.7c-157.1-1.9-314.2-4.5-471.3-5.4c-56.3-0.3-112.6,3.4-168.9,5.2c-7.5,0.2-14.9,0-23.8,0c0-15.6,0-30.8,0-48.4c20.1-4,41.4-7.9,62.5-12.5c8.7-1.9,17.3-4.6,25.6-7.9c12.4-5,20.2-14.2,22-27.9c0.9-6.4,2.1-12.8,2.2-19.2c1.1-117.2,2.6-234.5,2.7-351.7c0.1-72.8-1.8-145.6-2.9-218.4c-0.7-41.2-11.6-54.1-51.8-61.7c-17.1-3.2-34.3-5.8-51.3-9.8c-4.1-1-9.9-5.9-10.2-9.5c-1.2-13.3-0.5-26.7-0.5-41.2c225.3,3.8,449.4,13.2,675.6-6.3c-4.7,76.5-9.5,153.2-14.3,231.1c-13.7,0-26.2,1.1-38.4-0.6c-4.3-0.6-9.8-7.3-11.2-12.2c-6.9-22.8-12-46.2-18.9-69c-4-13.3-9.5-26.3-15.8-38.6c-14.1-28.1-35.4-43.1-69-42.6c-80.8,1.4-161.7,0.4-242.5,0.5c-20.6,0-21.2,0.7-21.2,20.8c-0.1,90.8-0.2,181.6-0.2,272.4c0,5,0,9.9,0,16.2c35.7,0,69.5,0.5,103.3-0.2c21.9-0.5,43.7-2.6,65.6-4.4c29.9-2.5,40.5-11.2,48-40c5.6-21.6,10.6-43.5,15.5-65.3c2-8.6,5.9-12.6,15.3-11.9c11.9,0.9,23.9,0.2,37.5,0.2c0,7.9,0.1,15.1,0,22.2c-0.7,85.2-1.6,170.4-1.9,255.7c-0.1,11.3-2.7,15.8-14.8,15.9c-35.8,0.3-35.8,0.8-44.2-34.2c-3-12.6-6.1-25.1-9.4-37.6c-7.6-28.8-29-39.4-56.1-40.3c-50.8-1.7-101.7-2.2-152.5-3.2c-1.4,0-2.8,0.7-5.5,1.5c-0.3,5.6-0.7,11.5-0.7,17.3c-0.1,75.8-0.2,151.7-0.2,227.5c0,47.1,17.7,70,65,71.3c72.7,2.1,145.6,0.6,218.4-1.6c44-1.3,74.1-27.1,93-65.4c15.4-31.3,29.4-63.2,42.4-95.5c5.8-14.3,13.2-21,28.7-18.6c6.8,1.1,13.8,0.2,23.2,0.2C854.7,686,852.3,705.9,849.9,725.9z"/></g><g></g><g></g><g></g><g></g><g></g><g></g><g></g><g></g><g></g><g></g><g></g><g></g><g></g><g></g><g></g></g>
</svg>