<?xml version="1.0" encoding="utf-8"?>
<!-- Generator: Adobe Illustrator 16.0.0, SVG Export Plug-In . SVG Version: 6.00 Build 0)  -->
<!DOCTYPE svg PUBLIC "-//W3C//DTD SVG 1.1//EN" "http://www.w3.org/Graphics/SVG/1.1/DTD/svg11.dtd">
<svg version="1.1" id="Layer_1" xmlns="http://www.w3.org/2000/svg" xmlns:xlink="http://www.w3.org/1999/xlink" x="0px" y="0px"
	 width="350px" height="350px" viewBox="0 0 350 350" enable-background="new 0 0 350 350" xml:space="preserve">
<path fill="none" stroke="#000000" stroke-width="7" stroke-linecap="round" stroke-linejoin="round" stroke-miterlimit="10" d="
	M-438.005,67.534c-22.806,0.961-58.477-23.46-58.477-23.46s-36.37,24.421-59.174,23.46c0,0-2.452,68.979,0,77.383
	c2.292,7.857,52.014,47.841,58.474,53.011v0.561c0,0,0.146-0.113,0.351-0.279c0.205,0.166,0.35,0.279,0.35,0.279v-0.559
	c6.463-5.17,56.182-45.156,58.477-53.013C-435.556,136.512-438.005,67.534-438.005,67.534z"/>
<path fill-rule="evenodd" clip-rule="evenodd" d="M-602.053,175.247c-0.38,0.209-0.767,0.402-1.345,0.705c0-0.645,0-1.08,0-1.518
	c0-36.121,0.004-72.244-0.022-108.365c0-1.02,0.285-1.578,1.208-2.084c41.786-22.849,83.554-45.727,125.326-68.601
	c0.355-0.194,0.717-0.376,1.175-0.614c0.047,0.341,0.102,0.583,0.109,0.826c0.015,0.523,6.195,33.724,6.195,33.724
	c0.091-14.756,0.15-29.059,0.15-40.165c-0.371-0.413-0.799-0.788-1.1-1.247c-0.638-0.977-1.519-1.61-2.536-2.144
	c-18.192-9.562-36.385-19.128-54.563-28.716c-9.935-5.238-19.833-10.545-29.773-15.771c-15.606-8.203-31.236-16.364-46.857-24.538
	c-0.455-0.238-0.937-0.425-1.406-0.636c-0.3,0-0.599,0-0.899,0c-1.195,0.6-2.405,1.17-3.583,1.802
	c-42.058,22.577-84.114,45.16-126.168,67.743c-0.363,0.194-0.728,0.388-1.081,0.599c-0.763,0.458-0.876,2.569-0.553,2.837
	c0,38.822,0,77.628,0,116.481c-0.472,0.033,0.25,3.932,1.411,4.594c42.716,24.416,85.423,48.844,128.131,73.271
	c0.422,0.242,0.855,0.467,1.266,0.727c0.842,0.537,1.706,0.488,2.578,0.115c0.308-0.135,0.592-0.322,0.885-0.488
	c11.569-6.527,31.809-17.269,43.378-23.798L-602.053,175.247z M-727.747-11.42c40.302-21.645,80.606-43.285,120.9-64.945
	c0.681-0.366,1.186-0.349,1.857,0.005c12.479,6.59,24.972,13.155,37.46,19.729c0.317,0.167,0.617,0.363,1.039,0.613
	c-0.422,0.257-0.723,0.459-1.039,0.632c-40.42,22.059-80.842,44.114-121.253,66.19c-0.747,0.408-1.279,0.44-2.04,0.008
	c-12.327-7.029-24.674-14.021-37.016-21.024c-0.282-0.161-0.55-0.348-0.929-0.59C-728.363-11.049-728.064-11.25-727.747-11.42z
	 M-610,175.872c-40.442-23.309-80.777-46.572-121.106-69.824c0-37.059,0-74.067,0-111.206c0.417,0.217,0.744,0.369,1.053,0.552
	c12.415,7.332,24.824,14.675,37.255,21.979c0.765,0.449,0.981,0.935,0.979,1.777c-0.025,13.377-0.018,26.757-0.018,40.136
	c0,0.443,0,0.887,0,1.477c3.757-1.031,7.391-2.029,11.116-3.053c3.04,5.051,6.063,10.078,9.108,15.139
	c4.936-1.229,9.796-2.436,14.787-3.678c4.586,6.354,9.18,12.717,13.774,19.08c0.405-7.02,0.429-13.996,0.503-20.973
	c0.073-6.963,0.179-13.925,0.271-20.895c0.91,0.126,27.112,14.975,32.277,18.268C-610,101.635-610,138.655-610,175.872z
	 M-604.517,58.19c-0.196,0.109-0.412,0.191-0.589,0.326c-0.547,0.416-1.031,0.359-1.626,0.012c-2.651-1.549-5.332-3.043-8.002-4.557
	c-7.424-4.214-14.849-8.425-22.272-12.639c-0.354-0.201-0.698-0.417-1.21-0.726c0.475-0.271,0.796-0.461,1.121-0.643
	c40.627-22.611,81.256-45.219,121.87-67.855c0.867-0.484,1.495-0.458,2.352-0.003c10.386,5.502,20.794,10.963,31.195,16.437
	c0.326,0.172,0.645,0.361,1.145,0.645c-0.439,0.265-0.765,0.474-1.101,0.661c-11.254,6.26-22.509,12.518-33.764,18.777
	C-545.104,25.147-574.81,41.669-604.517,58.19z"/>
<polyline fill="none" stroke="#000000" stroke-width="7" stroke-linecap="round" stroke-linejoin="round" stroke-miterlimit="10" points="
	-520.448,116.762 -496.146,137.805 -463.395,93.37 "/>
<g>
	<path fill-rule="evenodd" clip-rule="evenodd" d="M-247.972,457.684c-0.195,2.637-0.224,5.298-0.612,7.906
		c-1.969,13.215-9.118,22.38-21.64,27.213c-1.146,0.442-2.425,0.69-3.654,0.736c-5.043,0.194-10.093,0.22-15.136,0.419
		c-3.2,0.127,22.882-5.118,26.388-21.687c0.754-3.562,2.8-6.354,2.778-10.137c-0.202-35.548-0.213-71.096-0.295-106.643
		c-0.005-2.08-0.06-4.167-0.232-6.238c-0.725-8.696-8.137-15.807-16.906-16.159c-9.047-0.364-18.101-0.552-27.145-0.96
		c-5.914-0.267-5.533,0.118-7.738-5.682c-4.208-11.069-8.385-22.152-12.592-33.223c-1.5-3.944-4.504-5.883-8.615-6.049
		c-4.886-0.198-9.779-0.325-14.669-0.336c-14.572-0.032-29.146-0.007-43.719,0.031c-2.651,0.008-5.303,0.174-7.955,0.282
		c-3.952,0.163-6.771,2.136-8.116,5.771c-3.336,9.013-6.472,18.099-9.731,27.139c-1.004,2.784-2.118,5.53-3.235,8.271
		c-0.941,2.311-2.697,3.458-5.211,3.505c-10.457,0.193-20.913,0.479-31.37,0.603c-21.388,0.255-42.777,0.417-64.166,0.647
		c-2.183,0.023-4.386,0.098-6.539,0.418c-4.373,0.656-7.462,3.439-10.27,6.603c-2.69,3.032-3.753,6.612-3.776,10.618
		c-0.046,8.066-0.255,16.133-0.267,24.199c-0.039,29.407-0.002,58.814-0.07,88.221c-0.006,2.626,0.514,4.94,1.709,7.282
		c2.131,4.178,5.08,7.518,9.24,9.62c1.711,0.864,75.725,11.019,73.268,13.005c-0.503,0.406-1.332,0.564-2.014,0.573
		c-11.24,0.137-22.48,0.278-33.721,0.32c-9.264,0.036-18.528-0.078-27.792-0.092c-6.116-0.009-11.862-1.289-17.042-4.691
		c-6.422-4.218-11.096-9.818-13.666-17.112c-0.481-1.368-1.029-2.714-1.546-4.067c0-36.956,0-73.912,0-110.869
		c0.069-0.77,0.157-1.54,0.206-2.313c0.212-3.369,0.048-6.81,0.683-10.098c2.463-12.746,17.326-24.205,30.451-23.771
		c2.836,0.094,5.679,0.013,8.654,0.013c0-2.827-0.077-5.472,0.019-8.11c0.121-3.32,0.279-6.646,0.62-9.948
		c0.231-2.245,1.526-3.847,3.812-4.425c0.801-0.203,1.64-0.359,2.461-0.361c13.574-0.026,27.149-0.027,40.723-0.021
		c0.345,0,0.779,0.035,1.022,0.235c1.697,1.404,3.258,2.826,3.229,5.371c-0.057,5.096,0.059,10.195,0.102,15.293
		c0.005,0.604,0.001,1.208,0.001,1.955c0.718,0,1.226,0.005,1.733,0c9.623-0.101,19.245-0.236,28.869-0.268
		c1.404-0.004,1.921-0.506,2.359-1.767c3.598-10.347,6.988-20.78,11.024-30.956c3.021-7.617,9.172-11.678,17.414-12.386
		c0.717-0.062,1.429-0.177,2.143-0.267c18.842,0,37.685,0,56.526,0c3.009,0.068,6.032,0.36,9.021,0.15
		c3.505-0.246,6.488,0.756,9.371,2.602c4.725,3.025,8.433,6.801,10.39,12.219c3.546,9.815,7.262,19.568,10.876,29.358
		c0.319,0.861,0.639,1.372,1.704,1.365c6.241-0.036,12.483,0.09,18.723-0.003c8.326-0.122,15.843,2.141,22.233,7.524
		c6.869,5.786,11.034,13.006,11.119,22.253c0.073,8.009,0.238,16.018,0.378,24.027c0.016,0.876,0.124,1.75,0.188,2.626
		C-247.972,404.176-247.972,430.929-247.972,457.684z M-502.146,320.845c9.692,0,19.397,0,28.899,0c0-3.769,0-7.422,0-11.257
		c-3.379,0-6.444-0.006-9.509,0.001c-5.93,0.013-11.86,0.03-17.79,0.051c-0.73,0.003-1.582-0.074-1.59,0.995
		C-502.164,314.001-502.146,317.367-502.146,320.845z"/>
	<path fill-rule="evenodd" clip-rule="evenodd" d="M-371.955,512.023c-2.525-0.276-5.077-0.406-7.57-0.858
		c-15.494-2.812-29.08-9.504-40.482-20.402c-12.796-12.231-20.536-27.156-23.366-44.637c-5.135-31.721,11.519-64.971,40.061-79.997
		c9.543-5.025,19.613-8.443,30.387-9.145c41.465-2.695,71.934,24.023,81.233,56.315c2.466,8.563,2.854,17.275,2.605,26.11
		c-0.729,25.912-18.696,56.446-50.701,68.046c-6.47,2.346-13.071,4.179-20.027,4.335c-0.404,0.009-0.806,0.152-1.211,0.232
		C-364.668,512.023-368.313,512.023-371.955,512.023z M-432.225,434.477c-1.725,33.349,27.726,66.084,64.954,66.23
		c36.982,0.146,66.508-29.439,66.943-66.108c0.365-30.622-24.716-66.697-67.684-66.214
		C-403.906,368.788-433.874,400.618-432.225,434.477z"/>
	<path fill-rule="evenodd" clip-rule="evenodd" d="M-508.12,404.907c0,16.236,0.012,32.475-0.014,48.711
		c-0.003,2.026-0.165,4.056-0.324,6.077c-0.128,1.64-1.021,2.647-2.268,2.723c-1.151,0.069-2.315-0.953-2.556-2.494
		c-0.249-1.588-0.417-3.208-0.418-4.814c-0.023-33.566-0.026-67.133,0.004-100.699c0.002-1.757,0.223-3.535,0.557-5.262
		c0.228-1.176,1.054-2.119,2.403-2.032c1.39,0.089,2.071,1.05,2.253,2.38c0.049,0.359,0.076,0.725,0.086,1.088
		c0.154,5.461,0.405,10.922,0.434,16.383c0.064,12.646,0.02,25.293,0.02,37.94C-508.002,404.907-508.061,404.907-508.12,404.907z"/>
	<path fill-rule="evenodd" clip-rule="evenodd" d="M-491.259,404.435c0,16.187,0.013,32.373-0.015,48.559
		c-0.004,2.287-0.148,4.579-0.35,6.859c-0.069,0.778-0.317,1.709-0.826,2.245c-0.931,0.978-2.569,0.305-2.81-1.1
		c-0.202-1.176-0.337-2.378-0.341-3.57c-0.111-34.766-0.206-69.532-0.287-104.299c-0.003-1.351,0.196-2.701,0.212-4.052
		c0.019-1.404,0.836-1.947,2.059-2.047c1.3-0.105,2.218,0.656,2.291,1.979c0.146,2.65,0.284,5.305,0.289,7.957
		c0.026,15.822,0.013,31.645,0.013,47.468C-491.102,404.435-491.181,404.435-491.259,404.435z"/>
	<path fill-rule="evenodd" clip-rule="evenodd" d="M-314.937,435.328c-0.119,31.556-26.286,50.887-51.202,50.928
		c-27.275,0.046-52.268-25.145-50.38-51.884c-1.183-23.423,20.675-50.7,51.108-50.242
		C-336.699,384.563-314.974,406.901-314.937,435.328z M-365.81,480.31c25.318-0.062,45.477-20.053,45.335-45.094
		c-0.141-24.947-21.019-45.249-45.796-45.204c-21.871,0.04-45.563,19.483-44.417,45.273
		C-412.008,458.558-390.271,481.032-365.81,480.31z"/>
</g>
<line fill-rule="evenodd" clip-rule="evenodd" x1="170.136" y1="334.587" x2="172.906" y2="335.763"/>
<g>
	<g>
		<path fill-rule="evenodd" clip-rule="evenodd" d="M-175.998,79.416c-9.593,0-19.186,0.002-28.779-0.001
			c-4.348,0-6.644-2.261-6.646-6.587c-0.008-14.477-0.008-28.953,0-43.43c0.002-4.281,2.271-6.563,6.526-6.565
			c19.23-0.007,38.458-0.006,57.689,0c4.295,0.001,6.561,2.253,6.564,6.51c0.008,14.521,0.008,29.041,0.002,43.56
			c-0.002,4.23-2.313,6.511-6.578,6.512C-156.812,79.419-166.404,79.416-175.998,79.416z M-176.136,74.796
			c9.594,0,19.184,0,28.777,0c1.906-0.001,2.199-0.286,2.199-2.188c0.002-14.301,0.002-28.603,0-42.904
			c0-1.996-0.299-2.293-2.244-2.294c-19.098-0.001-38.196-0.001-57.293,0c-1.875,0-2.192,0.316-2.192,2.208
			c-0.003,14.344-0.003,28.689,0,43.035c0,1.842,0.3,2.143,2.107,2.143C-195.234,74.798-185.686,74.796-176.136,74.796z"/>
		<path fill-rule="evenodd" clip-rule="evenodd" d="M-166.851,39.72c2.406,2.419,4.572,4.601,6.746,6.776
			c2.012,2.017,4.045,4.014,6.035,6.053c0.311,0.32,0.619,0.817,0.623,1.236c0.045,4.369,0.027,8.739,0.021,13.109
			c0,0.181-0.049,0.361-0.088,0.599c-14.998,0-29.951,0-45.074,0c0-2.002-0.011-3.994,0.018-5.986
			c0.001-0.181,0.229-0.378,0.385-0.536c3.212-3.235,6.429-6.463,9.749-9.799c1.684,1.787,3.311,3.514,4.994,5.301
			C-177.805,50.783-172.391,45.314-166.851,39.72z"/>
		<path fill-rule="evenodd" clip-rule="evenodd" d="M-186.441,40.77c0.021,3.477-2.637,6.15-6.104,6.146
			c-3.419-0.007-6.061-2.637-6.077-6.054c-0.016-3.487,2.626-6.147,6.1-6.141C-189.092,34.726-186.461,37.344-186.441,40.77z"/>
		<path fill-rule="evenodd" clip-rule="evenodd" d="M-166.855,107.524c2.406,2.418,4.572,4.599,6.744,6.773
			c2.01,2.015,4.045,4.012,6.033,6.05c0.311,0.319,0.619,0.817,0.623,1.236c0.045,4.367,0.025,8.735,0.021,13.104
			c0,0.181-0.051,0.361-0.088,0.6c-14.994,0-29.941,0-45.058,0c0-2.003-0.011-3.993,0.018-5.983
			c0.001-0.181,0.229-0.379,0.385-0.536c3.211-3.232,6.426-6.461,9.745-9.795c1.683,1.786,3.31,3.512,4.992,5.299
			C-177.805,118.582-172.392,113.116-166.855,107.524z"/>
		<path fill-rule="evenodd" clip-rule="evenodd" d="M-186.438,108.573c0.021,3.475-2.635,6.148-6.102,6.144
			c-3.419-0.007-6.059-2.636-6.075-6.051c-0.016-3.487,2.625-6.146,6.097-6.14C-189.087,102.531-186.458,105.149-186.438,108.573z"
			/>
	</g>
	
		<line fill-rule="evenodd" clip-rule="evenodd" stroke="#000000" stroke-width="6" stroke-linecap="round" stroke-linejoin="round" stroke-miterlimit="10" x1="-86.574" y1="5.183" x2="-48.14" y2="-33.252"/>
	
		<line fill-rule="evenodd" clip-rule="evenodd" stroke="#000000" stroke-width="6" stroke-linecap="round" stroke-linejoin="round" stroke-miterlimit="10" x1="-79.783" y1="69.9" x2="-26.523" y2="69.9"/>
	
		<line fill-rule="evenodd" clip-rule="evenodd" stroke="#000000" stroke-width="6" stroke-linecap="round" stroke-linejoin="round" stroke-miterlimit="10" x1="-277.401" y1="75.833" x2="-327.856" y2="75.833"/>
	
		<line fill-rule="evenodd" clip-rule="evenodd" stroke="#000000" stroke-width="6" stroke-linecap="round" stroke-linejoin="round" stroke-miterlimit="10" x1="-269.692" y1="144.305" x2="-315.243" y2="187.384"/>
	<g>
		<path fill-rule="evenodd" clip-rule="evenodd" d="M-124.972,1.626c-0.018-8.663-5.805-14.704-14.451-14.742
			c-24.412-0.106-48.829-0.119-73.242,0.005c-8.316,0.042-14.178,6.022-14.201,14.193c-0.064,22.795-0.027,54,0.018,76.794
			c0.002,1.047,0.123,2.453,0.775,3.078c2.998,2.873,6.205,5.527,10.059,8.889c0-23.741,0-54.866,0-77.81
			c26.834,0,53.273,0,79.769,0c0,45.633,0,99.413,0,145.171c-25.998,0-51.686,0-77.565,0c4.768,9.508-0.435,16.69-8.623,19.946
			c3.056,3.1,6.792,4.005,10.902,4.003c23.667-0.015,47.333,0.011,71-0.02c9.941-0.013,15.535-5.613,15.572-15.503
			c0.02-4.912,0.016-9.825,0.012-14.737c-0.006-0.07-0.008-0.188-0.008-0.378 M-164.281,3.204
			c-7.799,0.143-15.602,0.144-23.401-0.004c-0.91-0.017-1.798-1.196-2.696-1.836c0.978-0.683,1.923-1.892,2.938-1.954
			c3.825-0.234,7.672-0.094,11.512-0.094c3.838,0,7.688-0.14,11.512,0.097c0.984,0.061,1.896,1.307,2.844,2.009
			C-162.474,2.043-163.367,3.187-164.281,3.204z M-182.579,169.927c-0.061-3.965,2.718-6.78,6.69-6.776
			c3.707,0.005,6.622,2.825,6.704,6.489c0.084,3.667-3.139,6.95-6.79,6.92C-179.581,176.527-182.523,173.573-182.579,169.927z"/>
	</g>
	<g>
		<path d="M-215.592,123.764C-215.592,123.764-215.592,123.764-215.592,123.764c-2.663-0.001-5.167-0.893-7.243-2.58
			c-8.537-6.94-15.958-13.384-22.688-19.699c-5.042-4.729-5.105-12.961-0.14-18.349c2.635-2.86,6.31-4.501,10.08-4.501
			c2.975,0,5.771,1.002,8.085,2.898c7.438,6.092,14.75,12.514,21.734,19.088c1.871,1.762,2.751,4.207,3.334,5.824
			c0.142,0.394,0.302,0.839,0.395,1.026l0.361,0.737l-0.044,0.818c-0.336,6.319-2.571,10.407-7.033,12.864
			C-210.975,123.116-213.34,123.764-215.592,123.764z M-235.583,84.941c-2.014,0-3.997,0.9-5.442,2.468
			c-2.302,2.5-2.925,6.903-0.183,9.477c6.62,6.211,13.932,12.559,22.352,19.404c0.953,0.775,2.05,1.168,3.264,1.168h0
			c1.19,0,2.504-0.378,3.799-1.091c1.978-1.09,3.375-2.717,3.73-6.972c-0.101-0.262-0.199-0.533-0.3-0.813
			c-0.402-1.116-0.952-2.644-1.723-3.369c-6.879-6.475-14.083-12.801-21.408-18.801C-232.668,85.45-234.082,84.941-235.583,84.941z"
			/>
	</g>
	<g>
		<path d="M-220.101,153.766l-0.876-0.474c-0.653-0.354-1.331-0.676-2.008-0.999c-1.73-0.826-3.521-1.681-5.133-3.013
			c-6.365-5.255-12.584-10.766-17.828-15.465c-5.821-5.216-6.602-13.251-1.818-18.692c2.428-2.763,5.737-4.283,9.315-4.283
			c3.335,0,6.599,1.288,9.439,3.723c7.259,6.225,13.072,11.304,18.292,15.981c4.239,3.799,5.656,9.571,3.61,14.707
			c-1.885,4.732-6.148,7.715-12.004,8.398L-220.101,153.766z M-238.449,117.147c-1.765,0-3.348,0.74-4.579,2.14
			c-2.472,2.812-1.929,6.947,1.291,9.831c5.197,4.656,11.356,10.115,17.635,15.299c1.015,0.839,2.385,1.492,3.836,2.186
			c0.447,0.213,0.894,0.427,1.335,0.647c3.034-0.554,5.038-2.008,5.964-4.333c1.072-2.69,0.321-5.632-1.96-7.676
			c-5.256-4.71-10.866-9.612-18.188-15.892C-234.796,117.909-236.641,117.147-238.449,117.147z"/>
	</g>
	<g>
		<path d="M-224.891,176.072C-224.892,176.072-224.892,176.072-224.891,176.072c-2.71-0.001-5.346-1.009-7.621-2.915
			c-4.484-3.757-9.029-7.704-13.894-12.066c-3.556-3.189-4.57-7.557-2.859-12.295c1.689-4.677,6.122-7.535,11.856-7.644l0.768-0.016
			l0.689,0.341c0.16,0.079,0.383,0.163,0.643,0.268c1.151,0.462,2.891,1.159,4.411,2.396c4.654,3.787,9.157,7.809,13.371,11.603
			c4.994,4.496,5.437,11.383,1.053,16.372C-218.714,174.667-221.704,176.072-224.891,176.072z M-237.932,147.488
			c-2.761,0.208-4.667,1.42-5.401,3.451c-1.073,2.969,0.045,4.476,1.138,5.456c4.811,4.314,9.303,8.216,13.732,11.927
			c2.398,2.01,5.287,1.866,7.249-0.367c2.099-2.389,1.888-5.342-0.534-7.523c-4.155-3.742-8.59-7.703-13.131-11.398
			c-0.776-0.632-1.933-1.096-2.777-1.435C-237.751,147.561-237.843,147.524-237.932,147.488z"/>
	</g>
	<g>
		<path d="M-228.741,82.851l-5.248-4.66c-2.037-1.809-4.018-3.529-5.947-5.204c-4.354-3.781-8.468-7.353-12.364-11.194
			c-2.542-2.507-3.944-5.972-3.945-9.756c-0.002-4.103,1.639-8.078,4.502-10.905c2.855-2.821,6.621-4.375,10.601-4.375
			c3.517,0,6.915,1.259,9.569,3.546c1.254,1.08,2.729,3.131,2.758,5.354c0.097,7.474,0.088,14.985,0.08,22.937L-228.741,82.851z
			 M-241.142,43.063c-2.311,0-4.501,0.907-6.169,2.555c-1.646,1.625-2.627,4.024-2.626,6.415c0,2.084,0.735,3.955,2.066,5.268
			c3.754,3.702,7.794,7.209,12.071,10.923c0.251,0.219,0.504,0.438,0.757,0.658v-0.295c0.009-7.886,0.017-15.336-0.077-22.727
			c-0.075-0.192-0.319-0.565-0.569-0.779C-237.2,43.78-239.136,43.063-241.142,43.063z"/>
	</g>
	<path fill-rule="evenodd" clip-rule="evenodd" d="M-140.611,98.72c-0.004-4.257-2.27-6.509-6.564-6.51
		c-19.23-0.006-59.187-1.468-59.448,2.321c0,0,0.468,2.256,1.958,2.256c19.098-0.001,38.194-0.001,57.294,0
		c1.945,0,2.244,0.299,2.244,2.294c0.002,14.3,0.002,28.602,0,42.904c0,1.902-0.293,2.187-2.201,2.188c-9.592,0-19.184,0-28.776,0
		c-9.549,0-19.098,0.002-28.646-0.002c-1.807,0-4.343,4.619,0.005,4.619c9.594,0.004,19.186,0.002,28.779,0.002
		c9.593,0,19.185,0.002,28.776-0.002c4.268,0,6.578-2.281,6.58-6.513C-140.603,127.76-140.603,113.24-140.611,98.72z"/>
	<path d="M-163.38,251.289c0.85-17.446-5.455-32.919-19.234-47.246c-4.306-4.477-7.71-8.954-9.79-12.815l12.378-0.003l23.369,0.002
		c6.764,0,13.527-0.001,20.291-0.008c6.43-0.005,11.453-1.803,14.93-5.341c3.445-3.508,5.137-8.489,5.029-14.807
		c-0.045-2.538-0.18-4.87-0.311-7.124c-0.217-3.751-0.441-7.63-0.248-12.647l0.004-0.124l-0.006-0.125
		c-0.674-16.675-0.689-48.157,1.412-63.053c1.107-4.041,1.684-4.524,3.746-6.25c1.07-0.895,2.324-1.349,3.729-1.349
		c3.186,0,7.016,2.487,7.842,7.099c0.725,4.036,0.832,8.281,0.842,11.901c0.033,12.069,1.92,21.781,5.938,30.563
		c4.957,10.836,4.105,22.479,2.447,33.445c-0.727,4.821-1.537,9.724-2.322,14.466c-1.461,8.83-2.971,17.961-4.023,27.03
		c-1.336,11.489,9.625,36.969,9.625,36.969c-3.551-13.167-4.658-25.089-3.361-36.239c1.037-8.92,2.535-17.974,3.982-26.73
		c0.789-4.764,1.602-9.688,2.336-14.553c1.805-11.931,2.695-24.673-2.949-37.011c-3.631-7.937-5.334-16.819-5.365-27.957
		c-0.01-3.894-0.129-8.483-0.941-12.999c-1.256-7.007-7.295-12.292-14.049-12.292c-2.881,0-5.57,0.974-7.773,2.818
		c-3.033,2.538-4.324,4.024-5.838,9.624l-0.078,0.375c-2.182,15.171-2.186,47.26-1.502,64.272c-0.197,5.259,0.035,9.26,0.26,13.13
		c0.133,2.293,0.258,4.456,0.299,6.866c0.078,4.565-1.006,8.023-3.223,10.28c-2.246,2.287-5.758,3.449-10.438,3.453
		c-6.76,0.006-13.521,0.007-20.283,0.007l-23.369-0.002l-13.521,0.003c-0.884,0.001-1.75,0.052-2.589,0.101
		c-0.374,0.021-0.755,0.045-1.145,0.062l-4.1,0.191l1.241,3.913c1.75,5.518,6.36,12.347,12.98,19.229
		c12.939,13.455,18.624,27.919,17.377,44.216c-0.066,0.867,0.125,1.602,0.25,2.087c0.027,0.102,0.057,0.204,0.076,0.308l0.484,2.57
		h70.443L-163.38,251.289z"/>
</g>
<g>
	<path fill-rule="evenodd" clip-rule="evenodd" d="M173.984,116.367c-2.27-5.24-5.462-9.876-9.823-13.506
		c-3.278-2.728-6.982-4.941-10.487-7.396c-0.967-0.676-2.106-1.238-2.806-2.134c-1.278-1.637-1.048-3.997,0.235-5.408
		c1.365-1.501,3.51-2.024,5.314-0.858c2.024,1.308,4.012,2.792,5.665,4.534c5.211,5.49,9.246,11.737,11.231,19.135
		c0.489,1.823,0.708,3.718,1.051,5.579C174.237,116.33,174.111,116.348,173.984,116.367z"/>
	<path fill-rule="evenodd" clip-rule="evenodd" d="M183.883,119.096c0.957-3.99,2.959-7.179,5.505-10.061
		c3.305-3.742,6.958-7.047,11.696-8.89c1.058-0.412,2.197-0.708,3.323-0.829c1.976-0.211,3.524,1.038,3.928,2.97
		c0.368,1.761-0.561,3.375-2.425,3.997c-0.955,0.318-1.983,0.413-2.969,0.651c-7.614,1.842-14.172,5.345-18.739,11.964
		C184.156,118.963,184.055,118.992,183.883,119.096z"/>
	<path fill-rule="evenodd" clip-rule="evenodd" d="M176.967,64.134c0.393,0.749,0.68,1.103,0.771,1.501
		c0.583,2.564,1.853,4.679,4.103,6.074c0.883,0.547,1.948,0.795,2.9,1.243c0.307,0.145,0.516,0.495,0.77,0.751
		c-0.264,0.246-0.49,0.633-0.799,0.717c-3.887,1.059-6.15,3.599-7.021,7.484c-0.072,0.32-0.424,0.577-0.646,0.863
		c-0.246-0.315-0.619-0.596-0.718-0.953c-0.717-2.594-1.89-4.875-4.319-6.254c-0.834-0.474-1.795-0.718-2.672-1.125
		c-0.325-0.151-0.574-0.467-0.857-0.708c0.296-0.282,0.549-0.735,0.894-0.82c3.926-0.971,5.977-3.663,6.953-7.394
		C176.414,65.174,176.621,64.866,176.967,64.134z"/>
	<path fill-rule="evenodd" clip-rule="evenodd" d="M184.027,102.005c0.156-1.085,0.23-2.019,0.434-2.924
		c0.947-4.231,2.74-8.094,5.138-11.695c0.778-1.169,1.788-1.853,3.204-1.68c1.374,0.167,2.235,1.042,2.58,2.349
		c0.377,1.43-0.36,2.442-1.387,3.339c-2.092,1.827-4.271,3.573-6.195,5.564C186.41,98.397,185.371,100.176,184.027,102.005z"/>
	<path fill-rule="evenodd" clip-rule="evenodd" d="M178.533,43.15c-0.311-0.483-0.548-0.726-0.639-1.015
		c-0.602-1.929-1.808-3.289-3.66-4.111c-0.31-0.138-0.712-0.498-0.72-0.766c-0.008-0.267,0.375-0.674,0.677-0.798
		c1.888-0.775,3.068-2.148,3.708-4.061c0.104-0.31,0.475-0.53,0.721-0.792c0.214,0.251,0.525,0.47,0.624,0.76
		c0.646,1.894,1.769,3.317,3.686,4.064c0.318,0.124,0.735,0.487,0.751,0.76c0.014,0.264-0.377,0.683-0.682,0.811
		c-1.928,0.804-3.131,2.218-3.766,4.178C179.143,42.463,178.873,42.689,178.533,43.15z"/>
	<path fill-rule="evenodd" clip-rule="evenodd" d="M155,68.303c-2.072,0.026-3.706-1.597-3.688-3.664
		c0.015-1.914,1.612-3.513,3.544-3.551c2.025-0.04,3.64,1.516,3.668,3.536C158.553,66.662,157.005,68.278,155,68.303z"/>
	<path fill-rule="evenodd" clip-rule="evenodd" d="M185.443,55.573c-0.006-1.754,1.368-3.154,3.088-3.146
		c1.683,0.008,3.13,1.469,3.105,3.134c-0.025,1.695-1.469,3.097-3.166,3.076C186.812,58.615,185.449,57.237,185.443,55.573z"/>
	<path fill-rule="evenodd" clip-rule="evenodd" d="M165.035,51.377c-1.216,0.016-2.398-1.128-2.403-2.326
		c-0.006-1.236,1.119-2.334,2.378-2.324c1.241,0.01,2.273,1.009,2.31,2.234C167.356,50.219,166.276,51.361,165.035,51.377z"/>
	<path fill-rule="evenodd" clip-rule="evenodd" d="M163.577,156.219c-1.611-0.434-16.879,47.264-19.206,55.147
		c-1.459,4.94-3.652,9.609-6.899,13.658c-2.327,2.901-5.315,4.919-9.112,5.465c-0.464,0.067-0.954-0.026-1.83-0.063
		c0.943-1.044,1.599-1.735,2.216-2.459c2.722-3.198,4.81-6.785,6.205-10.729c1.883-5.325,3.834-10.644,5.359-16.074
		c2.461-8.765,4.646-17.609,6.857-26.441c1.644-6.562,3.148-13.158,4.708-19.741c0.14-0.593,0.231-1.199,0.367-1.912
		c-9.826-2.737-19.595-5.458-29.445-8.2c-1.557,4.442-3.12,8.71-4.55,13.02c-2.451,7.383-4.992,14.744-7.175,22.207
		c-2.32,7.926-4.512,15.906-6.293,23.966c-1.273,5.763-1.462,11.695,0.211,17.499c1.378,4.78,4.071,8.605,8.464,11.091
		c4.745,2.684,9.832,3.943,15.292,3.42c5.764-0.551,9.962-3.713,13.441-8.111c4.511-5.705,7.03-12.351,8.901-19.231
		c2.794-10.277,5.412-20.603,7.924-30.951c1.688-6.959,3.065-13.993,4.578-20.994C163.615,156.661,163.585,156.526,163.577,156.219z
		"/>
	<path fill-rule="evenodd" clip-rule="evenodd" d="M231.7,159.193c-1.613,0.423,8.816,49.408,10.711,57.405
		c1.187,5.014,1.6,10.156,0.792,15.28c-0.578,3.676-2.172,6.91-5.194,9.27c-0.371,0.289-0.843,0.449-1.62,0.854
		c0.3-1.375,0.526-2.301,0.702-3.234c0.773-4.129,0.806-8.278,0.059-12.396c-1.01-5.558-1.957-11.142-3.329-16.613
		c-2.216-8.831-4.711-17.593-7.176-26.357c-1.832-6.512-3.801-12.983-5.716-19.472c-0.173-0.585-0.395-1.156-0.631-1.842
		c-9.888,2.503-19.719,4.992-29.631,7.502c0.854,4.629,1.617,9.109,2.515,13.561c1.538,7.625,2.988,15.277,4.798,22.839
		c1.922,8.032,3.981,16.047,6.437,23.928c1.756,5.634,4.537,10.877,8.872,15.085c3.569,3.466,7.807,5.448,12.854,5.424
		c5.452-0.025,10.493-1.458,14.972-4.623c4.729-3.34,6.804-8.17,7.64-13.715c1.082-7.191-0.03-14.211-1.822-21.113
		c-2.677-10.308-5.532-20.57-8.489-30.801c-1.99-6.879-4.287-13.668-6.45-20.497C231.953,159.559,231.86,159.457,231.7,159.193z"/>
</g>
<path d="M172.62,135.033c-1.735,8.523-3.33,17.076-5.185,25.573c-2.714,12.43-5.434,24.863-8.51,37.206
	c-1.919,7.699-4.243,15.322-6.854,22.816c-2.347,6.736-5.972,12.831-11.538,17.541c-5.747,4.863-12.364,6.647-19.782,5.493
	c-5.741-0.894-11.02-2.883-15.484-6.718c-4.599-3.95-7.081-9.061-8.125-14.949c-1.342-7.569-0.463-15.024,1.499-22.336
	c2.371-8.83,4.92-17.617,7.635-26.348c2.636-8.476,5.494-16.886,8.413-25.27c2.687-7.715,5.586-15.354,8.392-23.027
	c0.591-1.615,1.182-3.231,1.863-5.092c2.218,0.602,4.345,1.16,6.461,1.755c13.369,3.756,26.731,7.532,40.11,11.253
	c0,0-35.806-16.465-44.419-18.982c-4.071-1.189-7.021,0.808-8.206,4.143c-2.132,5.998-4.572,11.886-6.72,17.879
	c-4.249,11.859-8.476,23.728-12.542,35.65c-3.423,10.039-6.594,20.165-8.695,30.584c-1.465,7.268-1.85,14.575-0.381,21.89
	c1.68,8.364,5.747,15.263,12.842,20.18c3.665,2.541,5.483,7.017,4.298,11.269c-2.397,8.6-4.794,17.199-7.299,25.769
	c-2.118,7.247-7.072,11.721-14.268,13.609c-3.709,0.975-7.546,1.453-11.312,2.225c-1.065,0.218-2.161,0.536-3.101,1.062
	c-1.27,0.709-1.208,1.436,0.082,2.078c0.825,0.411,1.707,0.738,2.597,0.983c9.883,2.728,19.779,5.407,29.658,8.152
	c5.277,1.466,10.521,3.05,15.791,4.545c1.613,0.459,3.242,0.901,4.894,1.166c1.332,0.213,1.893-0.596,1.212-1.757
	c-0.569-0.971-1.377-1.835-2.201-2.618c-2.882-2.738-6.007-5.245-8.688-8.162c-5.019-5.459-6.784-11.868-4.745-19.164
	c2.296-8.217,4.532-16.45,6.833-24.664c1.29-4.604,4.875-7.634,9.267-7.883c8.203-0.465,15.098-3.786,20.847-9.56
	c6.9-6.929,10.964-15.499,13.636-24.717C163.586,207.322,172.62,135.033,172.62,135.033z"/>
<path d="M276.136,316.169c-1.023-0.494-2.105-0.916-3.208-1.187c-3.088-0.76-6.231-1.308-9.293-2.156
	c-8.349-2.316-13.854-7.461-15.801-16.126c-1.803-8.022-3.688-16.027-5.594-24.027c-1.13-4.748,0.494-8.934,4.601-11.585
	c7.371-4.76,11.747-11.593,13.79-20.021c2.014-8.309,1.493-16.633-0.115-24.905c-2.39-12.289-28.586-76.006-28.586-76.006
	c0.214,0.676,0.576,1.834,1.315,4.209c2.494,8.015,5.101,15.996,7.433,24.058c3.413,11.798,6.721,23.63,9.88,35.499
	c1.429,5.368,2.54,10.835,3.528,16.305c1.182,6.538,1.386,13.139-0.247,19.645c-2.74,10.913-10.056,16.955-20.82,19.283
	c-11.574,2.504-21.681-1.763-28.123-11.76c-4.113-6.382-6.615-13.391-8.308-20.692c-2.183-9.423-4.307-18.869-6.074-28.377
	c-2.432-13.079-4.521-26.223-6.727-39.344c-0.493-2.926-0.932-5.884-1.381-8.884c-0.005-0.036-0.003-0.071-0.008-0.107l-0.37-2.694
	c15.951-3.774,31.747-7.509,47.698-11.283v-0.004c-0.351,0.081-0.27,0.061,0-0.003v-0.128c-4.846,0.33-46.113,4.755-51.842,6.018
	l-0.014,0.077c-1.605,0.397-2.618,2.602-2.273,5.104l0.52,3.777c0.024,0.179,0.07,0.345,0.106,0.517c0,0,0.113,0.531,0.131,0.654
	c0.372,2.628,0.712,5.26,1.104,7.885c1.104,7.388,2.146,14.787,3.365,22.157c1.465,8.847,2.9,17.705,4.693,26.488
	c1.774,8.699,3.766,17.367,6.055,25.943c2.059,7.71,5.521,14.824,10.82,20.921c5.5,6.328,12.258,10.29,20.717,11.178
	c4.927,0.517,8.267,3.675,9.364,8.433c1.849,8.01,3.689,16.023,5.675,24.001c2.25,9.041-0.624,16.259-7.549,22.112
	c-2.6,2.198-5.334,4.241-7.875,6.504c-0.729,0.649-0.992,1.819-1.47,2.751c1.008,0.096,2.074,0.452,3.018,0.245
	c6.296-1.38,12.568-2.876,18.847-4.344c10.158-2.376,20.316-4.756,30.471-7.146c0.772-0.183,1.558-0.388,2.268-0.727
	c0.47-0.225,1.036-0.652,1.144-1.091C277.077,317.022,276.544,316.366,276.136,316.169z"/>
</svg>
