<?xml version="1.0" encoding="utf-8"?>
<!-- Generator: Adobe Illustrator 16.0.0, SVG Export Plug-In . SVG Version: 6.00 Build 0)  -->
<!DOCTYPE svg PUBLIC "-//W3C//DTD SVG 1.1//EN" "http://www.w3.org/Graphics/SVG/1.1/DTD/svg11.dtd">
<svg version="1.1" id="Layer_1" xmlns="http://www.w3.org/2000/svg" xmlns:xlink="http://www.w3.org/1999/xlink" x="0px" y="0px"
	 width="350px" height="350px" viewBox="0 0 350 350" enable-background="new 0 0 350 350" xml:space="preserve">
<g>
	<path fill-rule="evenodd" clip-rule="evenodd" d="M328.028,239.022c-0.195,2.637-0.224,5.298-0.612,7.906
		c-1.969,13.215-9.118,22.38-21.64,27.213c-1.146,0.442-2.425,0.69-3.654,0.736c-5.043,0.194-10.093,0.22-15.136,0.419
		c-3.2,0.127,22.882-5.118,26.388-21.687c0.754-3.562,2.8-6.354,2.778-10.137c-0.202-35.548-0.213-71.095-0.295-106.643
		c-0.005-2.08-0.06-4.167-0.232-6.238c-0.725-8.696-8.137-15.807-16.906-16.159c-9.047-0.364-18.101-0.552-27.145-0.96
		c-5.914-0.267-5.533,0.118-7.738-5.681c-4.208-11.07-8.385-22.152-12.592-33.223c-1.5-3.944-4.504-5.882-8.615-6.049
		c-4.886-0.198-9.779-0.325-14.669-0.336c-14.572-0.032-29.146-0.007-43.719,0.032c-2.651,0.007-5.303,0.173-7.955,0.282
		c-3.952,0.163-6.771,2.136-8.116,5.771c-3.336,9.012-6.472,18.098-9.731,27.139c-1.004,2.784-2.118,5.53-3.235,8.27
		c-0.941,2.311-2.697,3.458-5.211,3.505c-10.457,0.194-20.913,0.479-31.37,0.603c-21.388,0.254-42.777,0.417-64.166,0.647
		c-2.183,0.024-4.386,0.097-6.539,0.418c-4.373,0.656-7.462,3.438-10.27,6.602c-2.69,3.032-3.753,6.613-3.776,10.618
		c-0.046,8.067-0.255,16.133-0.267,24.2c-0.039,29.407-0.002,58.814-0.07,88.22c-0.006,2.626,0.514,4.94,1.709,7.282
		c2.131,4.178,5.08,7.518,9.24,9.62c1.711,0.864,75.725,11.019,73.268,13.005c-0.503,0.406-1.332,0.564-2.014,0.573
		c-11.24,0.137-22.48,0.278-33.721,0.32c-9.264,0.036-18.528-0.078-27.792-0.092c-6.116-0.009-11.862-1.289-17.042-4.691
		c-6.422-4.218-11.096-9.818-13.666-17.112c-0.481-1.368-1.029-2.714-1.546-4.067c0-36.956,0-73.913,0-110.869
		c0.069-0.771,0.157-1.541,0.206-2.313c0.212-3.37,0.048-6.81,0.683-10.098c2.463-12.747,17.326-24.205,30.451-23.772
		c2.836,0.094,5.679,0.013,8.654,0.013c0-2.828-0.077-5.472,0.019-8.11c0.121-3.32,0.279-6.646,0.62-9.949
		c0.231-2.246,1.526-3.847,3.812-4.425c0.801-0.203,1.64-0.359,2.461-0.361c13.574-0.026,27.149-0.027,40.723-0.021
		c0.345,0,0.779,0.035,1.022,0.236c1.697,1.403,3.258,2.826,3.229,5.371c-0.057,5.096,0.059,10.195,0.102,15.292
		c0.005,0.604,0.001,1.208,0.001,1.956c0.718,0,1.226,0.004,1.733-0.001c9.623-0.1,19.245-0.235,28.869-0.267
		c1.404-0.004,1.921-0.507,2.359-1.767c3.598-10.347,6.988-20.78,11.024-30.956c3.021-7.618,9.172-11.677,17.414-12.386
		c0.717-0.062,1.429-0.177,2.143-0.267c18.842,0,37.685,0,56.526,0c3.009,0.069,6.032,0.36,9.021,0.15
		c3.505-0.247,6.488,0.755,9.371,2.602c4.725,3.025,8.433,6.8,10.39,12.219c3.546,9.815,7.262,19.569,10.876,29.358
		c0.319,0.861,0.639,1.372,1.704,1.365c6.241-0.036,12.483,0.09,18.723-0.002c8.326-0.123,15.843,2.14,22.233,7.524
		c6.869,5.786,11.034,13.006,11.119,22.253c0.073,8.009,0.238,16.018,0.378,24.027c0.016,0.876,0.124,1.751,0.188,2.626
		C328.028,185.515,328.028,212.268,328.028,239.022z M73.854,102.184c9.692,0,19.397,0,28.899,0c0-3.768,0-7.422,0-11.257
		c-3.379,0-6.444-0.005-9.509,0.001c-5.93,0.013-11.86,0.031-17.79,0.051c-0.73,0.003-1.582-0.074-1.59,0.996
		C73.836,95.34,73.854,98.707,73.854,102.184z"/>
	<path fill-rule="evenodd" clip-rule="evenodd" d="M204.045,293.362c-2.525-0.276-5.077-0.406-7.57-0.858
		c-15.494-2.812-29.08-9.504-40.482-20.402c-12.796-12.231-20.536-27.156-23.366-44.637c-5.135-31.721,11.519-64.971,40.061-79.998
		c9.543-5.025,19.613-8.443,30.387-9.144c41.465-2.696,71.934,24.023,81.233,56.315c2.466,8.563,2.854,17.275,2.605,26.11
		c-0.729,25.912-18.696,56.446-50.701,68.046c-6.47,2.346-13.071,4.179-20.027,4.335c-0.404,0.009-0.806,0.152-1.211,0.232
		C211.332,293.362,207.688,293.362,204.045,293.362z M143.775,215.815c-1.725,33.349,27.726,66.084,64.954,66.23
		c36.982,0.146,66.508-29.439,66.943-66.108c0.365-30.622-24.716-66.697-67.684-66.214
		C172.094,150.127,142.126,181.957,143.775,215.815z"/>
	<path fill-rule="evenodd" clip-rule="evenodd" d="M67.88,186.246c0,16.236,0.012,32.475-0.014,48.711
		c-0.003,2.026-0.165,4.056-0.324,6.077c-0.128,1.64-1.021,2.647-2.268,2.723c-1.151,0.069-2.315-0.953-2.556-2.494
		c-0.249-1.588-0.417-3.208-0.418-4.814c-0.023-33.566-0.026-67.133,0.004-100.7c0.002-1.756,0.223-3.534,0.557-5.261
		c0.228-1.176,1.054-2.119,2.403-2.033c1.39,0.088,2.071,1.05,2.253,2.38c0.049,0.359,0.076,0.725,0.086,1.088
		c0.154,5.46,0.405,10.921,0.434,16.382c0.064,12.647,0.02,25.293,0.02,37.941C67.998,186.246,67.939,186.246,67.88,186.246z"/>
	<path fill-rule="evenodd" clip-rule="evenodd" d="M84.741,185.773c0,16.187,0.013,32.373-0.015,48.559
		c-0.004,2.287-0.148,4.579-0.35,6.859c-0.069,0.778-0.317,1.709-0.826,2.245c-0.931,0.978-2.569,0.305-2.81-1.1
		c-0.202-1.176-0.337-2.378-0.341-3.57c-0.111-34.766-0.206-69.532-0.287-104.299c-0.003-1.35,0.196-2.701,0.212-4.051
		c0.019-1.404,0.836-1.947,2.059-2.047c1.3-0.105,2.218,0.656,2.291,1.979c0.146,2.65,0.284,5.304,0.289,7.957
		c0.026,15.823,0.013,31.646,0.013,47.468C84.898,185.773,84.819,185.773,84.741,185.773z"/>
	<path fill-rule="evenodd" clip-rule="evenodd" d="M261.063,216.667c-0.119,31.556-26.286,50.887-51.202,50.928
		c-27.275,0.046-52.268-25.145-50.38-51.884c-1.183-23.423,20.675-50.701,51.108-50.242
		C239.301,165.901,261.026,188.24,261.063,216.667z M210.19,261.648c25.318-0.062,45.477-20.053,45.335-45.094
		c-0.141-24.947-21.019-45.249-45.796-45.204c-21.871,0.04-45.563,19.483-44.417,45.273
		C163.992,239.896,185.729,262.371,210.19,261.648z"/>
</g>
</svg>
