<?xml version="1.0" encoding="utf-8"?>
<!-- Generator: Adobe Illustrator 16.0.0, SVG Export Plug-In . SVG Version: 6.00 Build 0)  -->
<!DOCTYPE svg PUBLIC "-//W3C//DTD SVG 1.1//EN" "http://www.w3.org/Graphics/SVG/1.1/DTD/svg11.dtd">
<svg version="1.1" id="Layer_1" xmlns="http://www.w3.org/2000/svg" xmlns:xlink="http://www.w3.org/1999/xlink" x="0px" y="0px"
	 width="280px" height="70px" viewBox="0 0 280 70" enable-background="new 0 0 280 70" xml:space="preserve">
<g>
	<g>
		<path d="M41.341,46.047c0.362-0.812,0.543-1.3,0.543-1.466c0-0.265-0.079-0.476-0.236-0.633c-0.158-0.157-0.54-0.261-1.146-0.311
			c-0.606-0.05-0.988-0.147-1.146-0.292c-0.158-0.145-0.237-0.337-0.237-0.576c0-0.408,0.112-0.694,0.337-0.855
			c0.225-0.162,0.595-0.243,1.112-0.243c0.15,0,0.554,0.062,1.211,0.187c0.658,0.124,1.262,0.187,1.811,0.187
			c0.116,0,0.482-0.054,1.099-0.162c0.617-0.107,1.166-0.162,1.649-0.162c0.782,0,1.174,0.299,1.174,0.895
			c0,0.579-0.54,0.945-1.619,1.098c-0.88,0.1-1.644,0.945-2.291,2.537l-4.906,11.959c-0.378,0.928-0.764,1.393-1.158,1.393
			c-0.395,0-0.682-0.229-0.863-0.686c-0.181-0.456-0.296-0.726-0.345-0.809l-4.978-8.916c-0.267-0.48-0.492-0.722-0.675-0.722
			c-0.166,0-0.349,0.241-0.548,0.722l-3.885,9.189l-0.125,0.299c-0.286,0.714-0.638,1.07-1.058,1.07
			c-0.252,0-0.454-0.095-0.604-0.285s-0.344-0.517-0.579-0.98L17.928,46.27c-0.764-1.556-1.569-2.333-2.416-2.333
			c-0.582,0-1.03-0.104-1.345-0.314s-0.473-0.467-0.473-0.77c0-0.688,0.422-1.033,1.267-1.033c0.794,0,1.531,0.071,2.21,0.212
			c0.678,0.142,1.225,0.212,1.639,0.212c0.215,0,0.691-0.07,1.428-0.212c0.737-0.141,1.197-0.212,1.379-0.212
			c0.612,0,1.047,0.081,1.304,0.24c0.257,0.16,0.385,0.426,0.385,0.797c0,0.421-0.308,0.735-0.921,0.941
			c-0.614,0.207-0.921,0.524-0.921,0.954c0,0.198,0.167,0.636,0.501,1.313l3.331,6.641c0.184,0.38,0.358,0.569,0.526,0.569
			c0.133,0,0.282-0.19,0.448-0.572l3.536-8.242c0.398-0.963,0.694-1.606,0.888-1.931c0.194-0.323,0.408-0.485,0.644-0.485
			c0.219,0,0.505,0.315,0.859,0.946l5.338,9.712c0.133,0.266,0.274,0.398,0.424,0.398c0.148,0,0.28-0.133,0.395-0.398L41.341,46.047
			z"/>
		<path d="M63.275,49.216c0.382,0,0.639-0.065,0.772-0.197c0.133-0.132,0.199-0.371,0.199-0.717c0-1.268-0.494-2.453-1.482-3.557
			s-2.478-1.655-4.47-1.655c-1.378,0-2.802,0.655-4.271,1.964c-1.47,1.31-2.204,3.166-2.204,5.568c0,1.757,0.775,3.336,2.324,4.736
			s3.286,2.1,5.208,2.1c1.458,0,3.033-0.456,4.723-1.369c0.646-0.349,1.069-0.523,1.268-0.523c0.298,0,0.534,0.085,0.708,0.253
			c0.174,0.169,0.261,0.379,0.261,0.632c0,0.606-0.917,1.341-2.752,2.203c-1.834,0.863-3.723,1.295-5.665,1.295
			c-2.873,0-5.288-0.979-7.247-2.938c-1.959-1.959-2.938-4.292-2.938-6.998c0-2.474,1.075-4.59,3.225-6.35
			c2.149-1.76,4.561-2.641,7.234-2.641c3.47,0,6.067,0.889,7.794,2.665c1.727,1.776,2.59,3.901,2.59,6.375
			c0,0.531-0.133,0.859-0.398,0.983c-0.266,0.125-0.754,0.188-1.467,0.188H55.279c-0.928,0-1.392-0.345-1.392-1.034
			c0-0.655,0.481-0.983,1.444-0.983H63.275z"/>
	</g>
	<g>
		<path d="M155.159,30.561c0,0.829,0.285,1.67,0.855,2.523c0.57,0.854,2.028,2.118,4.375,3.792c4.531,3.2,7.545,5.782,9.039,7.746
			c1.494,1.966,2.241,4.059,2.241,6.279c0,3.15-1.22,5.6-3.661,7.349c-2.439,1.749-5.113,2.624-8.018,2.624
			c-2.06,0-4.172-0.428-6.338-1.282c-2.167-0.855-3.25-1.756-3.25-2.702c0-0.232,0.025-0.668,0.074-1.308
			c0.051-0.639,0.075-1.439,0.075-2.403c0-0.331-0.029-0.734-0.087-1.207c-0.059-0.474-0.088-0.785-0.088-0.934
			c0-0.614,0.362-0.922,1.085-0.922c0.806,0,1.257,0.614,1.356,1.843c0.199,2.025,0.912,3.603,2.141,4.731s2.931,1.693,5.105,1.693
			c2.191,0,4.005-0.617,5.441-1.853c1.436-1.235,2.154-2.847,2.154-4.836c0-1.193-0.485-2.462-1.453-3.805
			c-0.969-1.342-3.506-3.473-7.611-6.39c-1.693-1.195-3.026-2.212-3.997-3.051c-0.972-0.838-1.785-1.83-2.44-2.976
			c-0.656-1.146-0.984-2.449-0.984-3.91c0-2.374,1.075-4.341,3.226-5.902c2.149-1.561,4.627-2.341,7.433-2.341
			c1.594,0,3.3,0.395,5.118,1.183c1.817,0.789,2.727,1.715,2.727,2.777c0,0.149-0.009,0.386-0.024,0.709
			c-0.018,0.324-0.025,0.801-0.025,1.432c0,0.166,0.033,0.49,0.1,0.971c0,1.096-0.378,1.644-1.133,1.644
			c-0.269,0-0.533-0.128-0.793-0.384s-0.391-0.533-0.391-0.831c0-1.621-0.549-2.865-1.648-3.733s-2.443-1.302-4.03-1.302
			c-1.803,0-3.349,0.497-4.638,1.492C155.805,28.273,155.159,29.367,155.159,30.561z"/>
		<path d="M181.009,56.517c0,0.465,0.124,0.858,0.373,1.183c0.249,0.323,0.793,0.544,1.631,0.659
			c0.838,0.117,1.349,0.276,1.531,0.478c0.183,0.202,0.274,0.454,0.274,0.757c0,0.539-0.475,0.809-1.423,0.809
			c-0.499,0-1.239-0.055-2.221-0.162c-0.981-0.108-1.722-0.162-2.221-0.162c-0.467,0-1.148,0.054-2.047,0.162
			c-0.898,0.107-1.58,0.162-2.046,0.162c-1.165,0-1.747-0.304-1.747-0.909c0-0.286,0.083-0.518,0.249-0.694s0.685-0.314,1.557-0.414
			c0.871-0.1,1.444-0.397,1.718-0.896c0.274-0.497,0.411-1.078,0.411-1.742V28.897c0-0.415-0.142-0.788-0.423-1.12
			c-0.283-0.332-0.839-0.639-1.669-0.921c-0.83-0.282-1.324-0.499-1.481-0.65c-0.158-0.152-0.236-0.312-0.236-0.48
			c0-0.59,0.49-0.886,1.474-0.886c0.283,0,0.716,0.034,1.299,0.1c0.583,0.066,1.016,0.1,1.3,0.1c0.299,0,0.72-0.075,1.261-0.224
			c0.542-0.149,0.945-0.224,1.212-0.224c0.366,0,0.662,0.108,0.887,0.324c0.225,0.216,0.338,0.772,0.338,1.668V56.517z
			 M193.484,56.143c0,0.598,0.128,1.117,0.386,1.557s0.797,0.714,1.619,0.821c0.821,0.108,1.311,0.255,1.469,0.439
			c0.158,0.186,0.236,0.413,0.236,0.683c0,0.387-0.12,0.622-0.361,0.707c-0.241,0.084-0.72,0.126-1.435,0.126
			c-0.434,0-1.091-0.042-1.972-0.125c-0.882-0.083-1.531-0.124-1.947-0.124c-0.466,0-1.156,0.05-2.071,0.149
			s-1.605,0.149-2.071,0.149c-1.064,0-1.598-0.362-1.598-1.085c0-0.252,0.083-0.458,0.25-0.618c0.165-0.159,0.668-0.285,1.506-0.376
			c0.838-0.092,1.395-0.346,1.669-0.762c0.273-0.416,0.411-0.906,0.411-1.472c0-0.865-0.018-2.146-0.05-3.843
			c-0.033-1.696-0.05-2.978-0.05-3.843c0-0.781-0.227-1.385-0.681-1.809c-0.453-0.424-1.093-0.637-1.917-0.637
			c-0.825,0-1.766,0.398-2.821,1.195c-0.659,0.498-1.154,0.747-1.484,0.747c-0.165,0-0.339-0.092-0.52-0.277
			c-0.182-0.185-0.272-0.369-0.272-0.554c0-0.857,0.865-1.796,2.597-2.817c1.731-1.021,3.119-1.531,4.162-1.531
			c1.011,0,1.98,0.299,2.907,0.896c0.928,0.598,1.55,1.337,1.864,2.217c0.166,0.398,0.249,1.768,0.249,4.108
			c0,0.996-0.013,2.195-0.038,3.599C193.497,55.068,193.484,55.894,193.484,56.143z"/>
		<path d="M209.073,41.974c2.756,0,5.158,0.945,7.209,2.838s3.076,4.076,3.076,6.55c0,2.772-0.98,5.03-2.939,6.773
			s-4.582,2.614-7.869,2.614c-2.59,0-4.918-0.888-6.984-2.664c-2.067-1.776-3.101-3.984-3.101-6.624
			c0-2.523,0.909-4.735,2.727-6.637C203.01,42.924,205.637,41.974,209.073,41.974z M209.099,58.558c1.908,0,3.432-0.688,4.569-2.066
			c1.137-1.378,1.706-3.121,1.706-5.229c0-2.075-0.61-3.776-1.831-5.104c-1.22-1.328-2.769-1.992-4.644-1.992
			c-1.927,0-3.421,0.651-4.482,1.954c-1.063,1.304-1.594,2.984-1.594,5.043c0,2.274,0.589,4.076,1.768,5.403
			C205.77,57.895,207.271,58.558,209.099,58.558z"/>
		<path d="M231.411,41.974c2.756,0,5.158,0.945,7.209,2.838s3.076,4.076,3.076,6.55c0,2.772-0.98,5.03-2.939,6.773
			s-4.582,2.614-7.869,2.614c-2.59,0-4.918-0.888-6.984-2.664c-2.067-1.776-3.101-3.984-3.101-6.624
			c0-2.523,0.909-4.735,2.727-6.637C225.348,42.924,227.975,41.974,231.411,41.974z M231.437,58.558
			c1.908,0,3.432-0.688,4.569-2.066c1.137-1.378,1.706-3.121,1.706-5.229c0-2.075-0.61-3.776-1.831-5.104
			c-1.22-1.328-2.769-1.992-4.644-1.992c-1.927,0-3.421,0.651-4.482,1.954c-1.063,1.304-1.594,2.984-1.594,5.043
			c0,2.274,0.589,4.076,1.768,5.403C228.107,57.895,229.609,58.558,231.437,58.558z"/>
		<path d="M250.734,54.449c0,1.395,0.065,2.287,0.197,2.677c0.131,0.391,0.369,0.586,0.713,0.586c0.542,0,1.206-0.299,1.993-0.896
			s1.316-0.896,1.588-0.896c0.22,0,0.415,0.101,0.584,0.303c0.17,0.202,0.255,0.446,0.255,0.732c0,0.472-0.652,1.239-1.955,2.301
			c-1.304,1.063-2.453,1.594-3.449,1.594c-2.623,0-3.935-1.922-3.935-5.768v-9.572c0-0.315-0.042-0.485-0.124-0.51
			c-0.084-0.025-0.549-0.037-1.395-0.037c-0.665,0-1.113-0.097-1.346-0.29s-0.348-0.475-0.348-0.845
			c0-0.319,0.087-0.546,0.261-0.681c0.175-0.135,0.515-0.272,1.021-0.414c0.506-0.141,0.896-0.307,1.17-0.498
			c0.274-0.19,0.656-0.589,1.146-1.195c0.489-0.605,0.838-1.456,1.046-2.552s0.312-2.673,0.312-4.732
			c0-0.979,0.269-1.469,0.807-1.469c0.604,0,0.982,0.137,1.133,0.411c0.151,0.273,0.227,0.734,0.227,1.382v8.317
			c0,0.332,0.216,0.498,0.648,0.498h3.535c0.714,0,1.071,0.312,1.071,0.933c0,0.724-0.515,1.084-1.544,1.084h-3.113
			c-0.232,0-0.373,0.038-0.423,0.112c-0.05,0.075-0.075,0.262-0.075,0.561V54.449z"/>
	</g>
	<g>
		<g>
			<path d="M123.629,62.546c-12.398,0-22.484-10.086-22.484-22.483c0-12.398,10.086-22.484,22.484-22.484
				s22.484,10.086,22.484,22.484C146.113,52.46,136.027,62.546,123.629,62.546z M123.629,19.578
				c-11.295,0-20.484,9.189-20.484,20.484s9.189,20.483,20.484,20.483s20.484-9.188,20.484-20.483S134.924,19.578,123.629,19.578z"
				/>
		</g>
		<g>
			<path fill-rule="evenodd" clip-rule="evenodd" d="M162.166,16.614c-0.309,0.019-0.617,0.055-0.926,0.055
				c-5.135,0.004-10.27-0.008-15.404,0.019c-0.643,0.003-1.006-0.149-1.279-0.774c-1.277-2.908-2.623-5.784-3.916-8.685
				c-0.716-1.607-2.031-2.195-3.662-2.239c-1.491-0.04-2.982-0.013-4.473-0.013c-6.891-0.001-13.781,0.019-20.672-0.014
				c-2.25-0.011-3.818,0.726-4.692,2.994c-1.045,2.71-2.392,5.304-3.569,7.966c-0.251,0.57-0.563,0.768-1.187,0.764
				c-4.87-0.025-9.743,0.09-14.608-0.042c-5.089-0.139-7.549,2.86-7.653,7.585c-0.07,3.179-0.02,6.36-0.021,9.541
				c-0.001,7.321-0.001,14.643,0,21.964c0.001,6.192,3.26,10.204,9.425,10.963c4.06,0.501,8.19,0.459,12.291,0.579
				c3.841,0.111,7.684,0.113,11.526,0.17c0.356,0.005,0.712,0.055,1.08,0.084c0.102,0.857-0.461,0.765-0.942,0.765
				c-4.141,0.001-8.282,0.02-12.422-0.006c-3.775-0.022-7.56,0.056-11.321-0.198c-2.318-0.157-4.67-0.64-6.882-1.359
				c-3.72-1.21-6.337-4.979-6.35-8.894c-0.037-11.263-0.038-22.526,0.027-33.789c0.009-1.461,0.318-2.976,0.785-4.367
				c1.371-4.089,4.987-6.6,9.305-6.615c4.439-0.016,8.878-0.024,13.317,0.019c0.753,0.007,1.112-0.239,1.396-0.908
				c0.918-2.159,1.883-4.299,2.855-6.436c1.279-2.813,3.536-4.319,6.571-4.344c8.877-0.074,17.756-0.063,26.634-0.009
				c3.263,0.02,5.62,1.983,6.821,5.02c1.107,2.795,2.438,5.501,3.717,8.226c0.111,0.241,0.549,0.436,0.854,0.463
				c3.857,0.345,7.723,0.652,11.582,0.976c0.607,0.051,1.211,0.136,1.818,0.205C162.184,16.391,162.174,16.502,162.166,16.614z"/>
		</g>
		<g>
			<path fill-rule="evenodd" clip-rule="evenodd" d="M91.107,19.645c0.993,0,1.987-0.007,2.98,0.002
				c0.91,0.009,1.552,0.461,1.725,1.343c0.143,0.733,0.206,1.516,0.117,2.254c-0.148,1.248-0.819,1.759-2.093,1.766
				c-1.821,0.01-3.642,0.012-5.463,0c-1.588-0.011-2.336-0.873-2.335-2.654c0.001-1.819,0.72-2.676,2.289-2.703
				c0.927-0.015,1.854-0.003,2.781-0.003C91.107,19.648,91.107,19.646,91.107,19.645z"/>
		</g>
		<g>
			<path fill-rule="evenodd" clip-rule="evenodd" d="M136.474,46.176c2.088-5.021,1.906-9.813-1.212-14.216
				c-3.427-4.839-8.245-6.839-14.11-5.915c-4.478,0.706-7.765,3.225-10.019,7.16c1.888,0.347,3.663,0.674,5.529,1.017
				c-0.812,1.943-1.107,3.782-0.671,5.76c1.7-1.743,2.946-2.157,4.484-1.534c1.333,0.54,2.23,1.842,2.151,3.271
				c-0.11,1.998-1.331,3.041-3.231,3.444c3.792,3.226,9.032,1.975,12.765-3.063C133.561,43.422,134.952,44.736,136.474,46.176z
				 M134.865,48.599c-5.061,4.464-10.544,5.774-16.532,3.006c-5.901-2.729-8.526-7.728-8.684-14.134
				c-1.246,6.78,2.332,13.243,8.684,15.8C124.161,55.616,131.499,53.621,134.865,48.599z"/>
		</g>
		<g>
			<path fill-rule="evenodd" clip-rule="evenodd" d="M136.474,46.176C134.952,44.736,137.875,47.498,136.474,46.176
				c-3.732,5.037-13.288,2.212-17.079-1.014c1.9-0.403,3.121-1.446,3.231-3.444c0.079-1.429-0.818-2.73-2.151-3.271
				c-1.538-0.623-2.784-0.209-4.484,1.534c0,0-5.669-4.833-4.857-6.777c-1.867-0.343,1.888,0.347,0,0
				c2.254-3.935,5.542-6.454,10.019-7.16c5.865-0.924,10.683,1.076,14.11,5.915C138.38,36.363,138.562,41.155,136.474,46.176z"/>
		</g>
		<g>
			<path fill-rule="evenodd" clip-rule="evenodd" d="M134.865,48.599c-3.366,5.022-10.704,7.018-16.532,4.672
				c-6.352-2.557-9.93-9.02-8.684-15.8c0.158,6.406,2.783,11.404,8.684,14.134C124.32,54.373,129.804,53.063,134.865,48.599z"/>
		</g>
	</g>
</g>
</svg>
