<?xml version="1.0" encoding="utf-8"?>
<!-- Generator: Adobe Illustrator 16.0.0, SVG Export Plug-In . SVG Version: 6.00 Build 0)  -->
<!DOCTYPE svg PUBLIC "-//W3C//DTD SVG 1.1//EN" "http://www.w3.org/Graphics/SVG/1.1/DTD/svg11.dtd">
<svg version="1.1" id="Layer_1" xmlns="http://www.w3.org/2000/svg" xmlns:xlink="http://www.w3.org/1999/xlink" x="0px" y="0px"
	 width="350px" height="350px" viewBox="0 0 350 350" enable-background="new 0 0 350 350" xml:space="preserve">
<line fill-rule="evenodd" clip-rule="evenodd" x1="170.136" y1="334.587" x2="172.906" y2="335.763"/>
<g>
	<g>
		<path fill-rule="evenodd" clip-rule="evenodd" d="M172.712,144.672c-9.593,0-19.186,0.002-28.779-0.001
			c-4.348,0-6.644-2.261-6.646-6.587c-0.008-14.477-0.008-28.953,0-43.43c0.002-4.281,2.271-6.563,6.526-6.565
			c19.23-0.007,38.458-0.006,57.689,0c4.295,0.001,6.561,2.253,6.564,6.51c0.008,14.521,0.008,29.041,0.002,43.56
			c-0.002,4.23-2.313,6.511-6.578,6.512C191.898,144.676,182.307,144.672,172.712,144.672z M172.574,140.053
			c9.594,0,19.184,0,28.777,0c1.906-0.001,2.199-0.286,2.199-2.188c0.002-14.301,0.002-28.603,0-42.904
			c0-1.996-0.299-2.293-2.244-2.294c-19.098-0.001-38.196-0.001-57.293,0c-1.875,0-2.192,0.316-2.192,2.208
			c-0.003,14.344-0.003,28.689,0,43.035c0,1.842,0.3,2.143,2.107,2.143C153.476,140.055,163.025,140.053,172.574,140.053z"/>
		<path fill-rule="evenodd" clip-rule="evenodd" d="M181.859,104.977c2.406,2.419,4.572,4.601,6.746,6.776
			c2.012,2.017,4.045,4.014,6.035,6.053c0.311,0.32,0.619,0.817,0.623,1.236c0.045,4.369,0.027,8.739,0.021,13.109
			c0,0.181-0.049,0.361-0.088,0.599c-14.998,0-29.951,0-45.074,0c0-2.002-0.011-3.994,0.018-5.986
			c0.001-0.181,0.229-0.378,0.385-0.536c3.212-3.235,6.429-6.463,9.749-9.799c1.684,1.787,3.311,3.514,4.994,5.301
			C170.905,116.04,176.319,110.571,181.859,104.977z"/>
		<path fill-rule="evenodd" clip-rule="evenodd" d="M162.27,106.026c0.021,3.477-2.637,6.15-6.104,6.146
			c-3.419-0.007-6.061-2.637-6.077-6.054c-0.016-3.487,2.626-6.147,6.1-6.141C159.619,99.983,162.249,102.601,162.27,106.026z"/>
		<path fill-rule="evenodd" clip-rule="evenodd" d="M181.855,172.781c2.406,2.418,4.572,4.599,6.744,6.773
			c2.01,2.015,4.045,4.012,6.033,6.05c0.311,0.319,0.619,0.817,0.623,1.236c0.045,4.367,0.025,8.735,0.021,13.104
			c0,0.181-0.051,0.361-0.088,0.6c-14.994,0-29.941,0-45.058,0c0-2.003-0.011-3.993,0.018-5.983
			c0.001-0.181,0.229-0.379,0.385-0.536c3.211-3.232,6.426-6.461,9.745-9.795c1.683,1.786,3.31,3.512,4.992,5.299
			C170.906,183.839,176.318,178.373,181.855,172.781z"/>
		<path fill-rule="evenodd" clip-rule="evenodd" d="M162.273,173.83c0.021,3.475-2.635,6.148-6.102,6.144
			c-3.419-0.007-6.059-2.636-6.075-6.051c-0.016-3.487,2.625-6.146,6.097-6.14C159.623,167.788,162.252,170.406,162.273,173.83z"/>
	</g>
	
		<line fill-rule="evenodd" clip-rule="evenodd" stroke="#000000" stroke-width="6" stroke-linecap="round" stroke-linejoin="round" stroke-miterlimit="10" x1="262.137" y1="70.439" x2="300.57" y2="32.005"/>
	
		<line fill-rule="evenodd" clip-rule="evenodd" stroke="#000000" stroke-width="6" stroke-linecap="round" stroke-linejoin="round" stroke-miterlimit="10" x1="268.928" y1="135.157" x2="322.188" y2="135.157"/>
	
		<line fill-rule="evenodd" clip-rule="evenodd" stroke="#000000" stroke-width="6" stroke-linecap="round" stroke-linejoin="round" stroke-miterlimit="10" x1="71.31" y1="141.089" x2="20.854" y2="141.089"/>
	
		<line fill-rule="evenodd" clip-rule="evenodd" stroke="#000000" stroke-width="6" stroke-linecap="round" stroke-linejoin="round" stroke-miterlimit="10" x1="79.018" y1="209.562" x2="33.468" y2="252.641"/>
	<g>
		<path fill-rule="evenodd" clip-rule="evenodd" d="M223.738,66.883c-0.018-8.663-5.805-14.704-14.451-14.742
			c-24.412-0.106-48.829-0.119-73.242,0.005c-8.316,0.042-14.178,6.022-14.201,14.193c-0.064,22.795-0.027,54,0.018,76.794
			c0.002,1.047,0.123,2.453,0.775,3.078c2.998,2.873,6.205,5.527,10.059,8.889c0-23.741,0-54.866,0-77.81
			c26.834,0,53.273,0,79.769,0c0,45.633,0,99.413,0,145.171c-25.998,0-51.686,0-77.565,0c4.768,9.508-0.435,16.69-8.623,19.946
			c3.056,3.1,6.792,4.005,10.902,4.003c23.667-0.015,47.333,0.011,71-0.02c9.941-0.013,15.535-5.613,15.572-15.503
			c0.02-4.912,0.016-9.825,0.012-14.737c-0.006-0.07-0.008-0.188-0.008-0.378 M184.43,68.46c-7.799,0.143-15.602,0.144-23.401-0.004
			c-0.91-0.017-1.798-1.196-2.696-1.836c0.978-0.683,1.923-1.892,2.938-1.954c3.825-0.234,7.672-0.094,11.512-0.094
			c3.838,0,7.688-0.14,11.512,0.097c0.984,0.061,1.896,1.307,2.844,2.009C186.236,67.3,185.344,68.444,184.43,68.46z
			 M166.132,235.184c-0.061-3.965,2.718-6.78,6.69-6.776c3.707,0.005,6.622,2.825,6.704,6.489c0.084,3.667-3.139,6.95-6.79,6.92
			C169.129,241.784,166.187,238.83,166.132,235.184z"/>
	</g>
	<g>
		<path d="M133.119,189.021C133.118,189.021,133.118,189.021,133.119,189.021c-2.663-0.001-5.167-0.893-7.243-2.58
			c-8.537-6.94-15.958-13.384-22.688-19.699c-5.042-4.729-5.105-12.961-0.14-18.349c2.635-2.86,6.31-4.501,10.08-4.501
			c2.975,0,5.771,1.002,8.085,2.898c7.438,6.092,14.75,12.514,21.734,19.088c1.871,1.762,2.751,4.207,3.334,5.824
			c0.142,0.394,0.302,0.839,0.395,1.026l0.361,0.737l-0.044,0.818c-0.336,6.319-2.571,10.407-7.033,12.864
			C137.735,188.373,135.37,189.021,133.119,189.021z M113.128,150.198c-2.014,0-3.997,0.9-5.442,2.468
			c-2.302,2.5-2.925,6.903-0.183,9.477c6.62,6.211,13.932,12.559,22.352,19.404c0.953,0.775,2.05,1.168,3.264,1.168h0
			c1.19,0,2.504-0.378,3.799-1.091c1.978-1.09,3.375-2.717,3.73-6.972c-0.101-0.262-0.199-0.533-0.3-0.813
			c-0.402-1.116-0.952-2.644-1.723-3.369c-6.879-6.475-14.083-12.801-21.408-18.801
			C116.042,150.707,114.628,150.198,113.128,150.198z"/>
	</g>
	<g>
		<path d="M128.61,219.022l-0.876-0.474c-0.653-0.354-1.331-0.676-2.008-0.999c-1.73-0.826-3.521-1.681-5.133-3.013
			c-6.365-5.255-12.584-10.766-17.828-15.465c-5.821-5.216-6.602-13.251-1.818-18.692c2.428-2.763,5.737-4.283,9.315-4.283
			c3.335,0,6.599,1.288,9.439,3.723c7.259,6.225,13.072,11.304,18.292,15.981c4.239,3.799,5.656,9.571,3.61,14.707
			c-1.885,4.732-6.148,7.715-12.004,8.398L128.61,219.022z M110.262,182.404c-1.765,0-3.348,0.74-4.579,2.14
			c-2.472,2.812-1.929,6.947,1.291,9.831c5.197,4.656,11.356,10.115,17.635,15.299c1.015,0.839,2.385,1.492,3.836,2.186
			c0.447,0.213,0.894,0.427,1.335,0.647c3.034-0.554,5.038-2.008,5.964-4.333c1.072-2.69,0.321-5.632-1.96-7.676
			c-5.256-4.71-10.866-9.612-18.188-15.892C113.915,183.166,112.07,182.404,110.262,182.404z"/>
	</g>
	<g>
		<path d="M123.819,241.329C123.819,241.329,123.819,241.329,123.819,241.329c-2.71-0.001-5.346-1.009-7.621-2.915
			c-4.484-3.757-9.029-7.704-13.894-12.066c-3.556-3.189-4.57-7.557-2.859-12.295c1.689-4.677,6.122-7.535,11.856-7.644l0.768-0.016
			l0.689,0.341c0.16,0.079,0.383,0.163,0.643,0.268c1.151,0.462,2.891,1.159,4.411,2.396c4.654,3.787,9.157,7.809,13.371,11.603
			c4.994,4.496,5.437,11.383,1.053,16.372C129.996,239.924,127.007,241.329,123.819,241.329z M110.779,212.745
			c-2.761,0.208-4.667,1.42-5.401,3.451c-1.073,2.969,0.045,4.476,1.138,5.456c4.811,4.314,9.303,8.216,13.732,11.927
			c2.398,2.01,5.287,1.866,7.249-0.367c2.099-2.389,1.888-5.342-0.534-7.523c-4.155-3.742-8.59-7.703-13.131-11.398
			c-0.776-0.632-1.933-1.096-2.777-1.435C110.959,212.817,110.867,212.781,110.779,212.745z"/>
	</g>
	<g>
		<path d="M119.97,148.107l-5.248-4.66c-2.037-1.809-4.018-3.529-5.947-5.204c-4.354-3.781-8.468-7.353-12.364-11.194
			c-2.542-2.507-3.944-5.972-3.945-9.756c-0.002-4.103,1.639-8.078,4.502-10.905c2.855-2.821,6.621-4.375,10.601-4.375
			c3.517,0,6.915,1.259,9.569,3.546c1.254,1.08,2.729,3.131,2.758,5.354c0.097,7.474,0.088,14.985,0.08,22.937L119.97,148.107z
			 M107.568,108.32c-2.311,0-4.501,0.907-6.169,2.555c-1.646,1.625-2.627,4.024-2.626,6.415c0,2.084,0.735,3.955,2.066,5.268
			c3.754,3.702,7.794,7.209,12.071,10.923c0.251,0.219,0.504,0.438,0.757,0.658v-0.295c0.009-7.886,0.017-15.336-0.077-22.727
			c-0.075-0.192-0.319-0.565-0.569-0.779C111.511,109.037,109.574,108.32,107.568,108.32z"/>
	</g>
	<path fill-rule="evenodd" clip-rule="evenodd" d="M208.1,163.977c-0.004-4.257-2.27-6.509-6.564-6.51
		c-19.23-0.006-59.187-1.468-59.448,2.321c0,0,0.468,2.256,1.958,2.256c19.098-0.001,38.194-0.001,57.294,0
		c1.945,0,2.244,0.299,2.244,2.294c0.002,14.3,0.002,28.602,0,42.904c0,1.902-0.293,2.187-2.201,2.188c-9.592,0-19.184,0-28.776,0
		c-9.549,0-19.098,0.002-28.646-0.002c-1.807,0-4.343,4.619,0.005,4.619c9.594,0.004,19.186,0.002,28.779,0.002
		c9.593,0,19.185,0.002,28.776-0.002c4.268,0,6.578-2.281,6.58-6.513C208.107,193.017,208.107,178.497,208.1,163.977z"/>
	<path d="M185.33,316.546c0.85-17.446-5.455-32.919-19.234-47.246c-4.306-4.477-7.71-8.954-9.79-12.815l12.378-0.003l23.369,0.002
		c6.764,0,13.527-0.001,20.291-0.008c6.43-0.005,11.453-1.803,14.93-5.341c3.445-3.508,5.137-8.489,5.029-14.807
		c-0.045-2.538-0.18-4.87-0.311-7.124c-0.217-3.751-0.441-7.63-0.248-12.647l0.004-0.124l-0.006-0.125
		c-0.674-16.675-0.689-48.157,1.412-63.053c1.107-4.041,1.684-4.524,3.746-6.25c1.07-0.895,2.324-1.349,3.729-1.349
		c3.186,0,7.016,2.487,7.842,7.099c0.725,4.036,0.832,8.281,0.842,11.901c0.033,12.069,1.92,21.781,5.938,30.563
		c4.957,10.836,4.105,22.479,2.447,33.445c-0.727,4.821-1.537,9.724-2.322,14.466c-1.461,8.83-2.971,17.961-4.023,27.03
		c-1.336,11.489,9.625,36.969,9.625,36.969c-3.551-13.167-4.658-25.089-3.361-36.239c1.037-8.92,2.535-17.974,3.982-26.73
		c0.789-4.764,1.602-9.688,2.336-14.553c1.805-11.931,2.695-24.673-2.949-37.011c-3.631-7.937-5.334-16.819-5.365-27.957
		c-0.01-3.894-0.129-8.483-0.941-12.999c-1.256-7.007-7.295-12.292-14.049-12.292c-2.881,0-5.57,0.974-7.773,2.818
		c-3.033,2.538-4.324,4.024-5.838,9.624l-0.078,0.375c-2.182,15.171-2.186,47.26-1.502,64.272c-0.197,5.259,0.035,9.26,0.26,13.13
		c0.133,2.293,0.258,4.456,0.299,6.866c0.078,4.565-1.006,8.023-3.223,10.28c-2.246,2.287-5.758,3.449-10.438,3.453
		c-6.76,0.006-13.521,0.007-20.283,0.007l-23.369-0.002l-13.521,0.003c-0.884,0.001-1.75,0.052-2.589,0.101
		c-0.374,0.021-0.755,0.045-1.145,0.062l-4.1,0.191l1.241,3.913c1.75,5.518,6.36,12.347,12.98,19.229
		c12.939,13.455,18.624,27.919,17.377,44.216c-0.066,0.867,0.125,1.602,0.25,2.087c0.027,0.102,0.057,0.204,0.076,0.308l0.484,2.57
		h70.443L185.33,316.546z"/>
</g>
</svg>
