<?xml version="1.0" encoding="utf-8"?>
<!-- Generator: Adobe Illustrator 16.0.0, SVG Export Plug-In . SVG Version: 6.00 Build 0)  -->
<!DOCTYPE svg PUBLIC "-//W3C//DTD SVG 1.1//EN" "http://www.w3.org/Graphics/SVG/1.1/DTD/svg11.dtd">
<svg version="1.1" id="Layer_1" xmlns="http://www.w3.org/2000/svg" xmlns:xlink="http://www.w3.org/1999/xlink" x="0px" y="0px"
	 width="350px" height="350px" viewBox="0 0 350 350" enable-background="new 0 0 350 350" xml:space="preserve">
<path fill="none" stroke="#000000" stroke-width="7" stroke-linecap="round" stroke-linejoin="round" stroke-miterlimit="10" d="
	M321.011,188.488c-22.806,0.961-58.477-23.46-58.477-23.46s-36.37,24.421-59.174,23.46c0,0-2.452,68.979,0,77.383
	c2.292,7.857,52.014,47.842,58.474,53.012v0.561c0,0,0.146-0.113,0.351-0.279c0.205,0.166,0.35,0.279,0.35,0.279v-0.559
	c6.463-5.17,56.182-45.156,58.477-53.014C323.46,257.467,321.011,188.488,321.011,188.488z"/>
<path fill-rule="evenodd" clip-rule="evenodd" d="M156.963,296.201c-0.38,0.209-0.767,0.402-1.345,0.705c0-0.645,0-1.08,0-1.518
	c0-36.121,0.004-72.244-0.022-108.365c0-1.02,0.285-1.578,1.208-2.084c41.786-22.849,83.554-45.727,125.326-68.601
	c0.355-0.194,0.717-0.376,1.175-0.614c0.047,0.341,0.102,0.583,0.109,0.826c0.015,0.523,6.195,33.724,6.195,33.724
	c0.091-14.756,0.15-29.059,0.15-40.165c-0.371-0.413-0.799-0.788-1.1-1.247c-0.638-0.977-1.519-1.61-2.536-2.144
	c-18.192-9.562-36.385-19.128-54.563-28.716c-9.935-5.238-19.833-10.545-29.773-15.771c-15.606-8.203-31.236-16.364-46.857-24.538
	c-0.455-0.238-0.937-0.425-1.406-0.636c-0.3,0-0.599,0-0.899,0c-1.195,0.6-2.405,1.17-3.583,1.802
	c-42.058,22.577-84.114,45.16-126.168,67.743c-0.363,0.194-0.728,0.388-1.081,0.599c-0.763,0.458-0.876,2.569-0.553,2.837
	c0,38.822,0,77.628,0,116.481c-0.472,0.033,0.25,3.932,1.411,4.594c42.716,24.416,85.423,48.844,128.131,73.271
	c0.422,0.242,0.855,0.467,1.266,0.727c0.842,0.537,1.706,0.488,2.578,0.115c0.308-0.135,0.592-0.322,0.885-0.488
	c11.569-6.527,31.809-17.27,43.378-23.799L156.963,296.201z M31.269,109.534c40.302-21.645,80.606-43.285,120.9-64.945
	c0.681-0.366,1.186-0.349,1.857,0.005c12.479,6.59,24.972,13.155,37.46,19.729c0.317,0.167,0.617,0.363,1.039,0.613
	c-0.422,0.257-0.723,0.459-1.039,0.632c-40.42,22.059-80.842,44.114-121.253,66.19c-0.747,0.408-1.279,0.44-2.04,0.008
	c-12.327-7.029-24.674-14.021-37.016-21.024c-0.282-0.161-0.55-0.348-0.929-0.59C30.652,109.906,30.952,109.705,31.269,109.534z
	 M149.016,296.826c-40.442-23.309-80.777-46.572-121.106-69.824c0-37.059,0-74.067,0-111.206c0.417,0.217,0.744,0.369,1.053,0.552
	c12.415,7.332,24.824,14.675,37.255,21.979c0.765,0.449,0.981,0.935,0.979,1.777c-0.025,13.377-0.018,26.757-0.018,40.136
	c0,0.443,0,0.887,0,1.477c3.757-1.031,7.391-2.029,11.116-3.053c3.04,5.051,6.063,10.078,9.108,15.139
	c4.936-1.229,9.796-2.436,14.787-3.678c4.586,6.354,9.18,12.717,13.774,19.08c0.405-7.02,0.429-13.996,0.503-20.973
	c0.073-6.963,0.179-13.925,0.271-20.895c0.91,0.126,27.112,14.975,32.277,18.268C149.016,222.59,149.016,259.609,149.016,296.826z
	 M154.499,179.145c-0.196,0.109-0.412,0.191-0.589,0.326c-0.547,0.416-1.031,0.359-1.626,0.012
	c-2.651-1.549-5.332-3.043-8.002-4.557c-7.424-4.214-14.849-8.425-22.272-12.639c-0.354-0.201-0.698-0.417-1.21-0.726
	c0.475-0.271,0.796-0.461,1.121-0.643c40.627-22.611,81.256-45.219,121.87-67.855c0.867-0.484,1.495-0.458,2.352-0.003
	c10.386,5.502,20.794,10.963,31.195,16.437c0.326,0.172,0.645,0.361,1.145,0.645c-0.439,0.265-0.765,0.474-1.101,0.661
	c-11.254,6.26-22.509,12.518-33.764,18.777C213.911,146.102,184.206,162.624,154.499,179.145z"/>
<polyline fill="none" stroke="#000000" stroke-width="7" stroke-linecap="round" stroke-linejoin="round" stroke-miterlimit="10" points="
	238.567,237.717 262.869,258.76 295.621,214.324 "/>
</svg>
